<svg width="24" height="24" viewBox="0 0 24 24" fill="none" xmlns="http://www.w3.org/2000/svg">
<path d="M16.8986 10H18.8867C20.8748 10 21.8689 9 21.8689 7V5C21.8689 3 20.8748 2 18.8867 2H16.8986C14.9106 2 13.9165 3 13.9165 5V7C13.9165 9 14.9106 10 16.8986 10Z" stroke="#2B281A" stroke-opacity="0.6" stroke-width="1.5" stroke-miterlimit="10" stroke-linecap="round" stroke-linejoin="round"/>
<path d="M4.97042 22H6.95852C8.94661 22 9.94066 21 9.94066 19V17C9.94066 15 8.94661 14 6.95852 14H4.97042C2.98233 14 1.98828 15 1.98828 17V19C1.98828 21 2.98233 22 4.97042 22Z" stroke="#2B281A" stroke-opacity="0.6" stroke-width="1.5" stroke-miterlimit="10" stroke-linecap="round" stroke-linejoin="round"/>
<path d="M5.96447 10C8.16046 10 9.94066 8.20914 9.94066 6C9.94066 3.79086 8.16046 2 5.96447 2C3.76848 2 1.98828 3.79086 1.98828 6C1.98828 8.20914 3.76848 10 5.96447 10Z" stroke="#2B281A" stroke-opacity="0.6" stroke-width="1.5" stroke-miterlimit="10" stroke-linecap="round" stroke-linejoin="round"/>
<path d="M17.8927 22C20.0887 22 21.8689 20.2091 21.8689 18C21.8689 15.7909 20.0887 14 17.8927 14C15.6967 14 13.9165 15.7909 13.9165 18C13.9165 20.2091 15.6967 22 17.8927 22Z" stroke="#2B281A" stroke-opacity="0.6" stroke-width="1.5" stroke-miterlimit="10" stroke-linecap="round" stroke-linejoin="round"/>
</svg>
