<svg width="36" height="36" viewBox="0 0 36 36" fill="none" xmlns="http://www.w3.org/2000/svg">
<circle cx="18" cy="18" r="5" fill="white"/>
<path d="M11.7241 12.541L10.7931 9H8M11.7241 12.541H26L23.9676 20.7538C23.7037 21.8201 22.703 22.5738 21.5509 22.5738H16.4283C15.3018 22.5738 14.3165 21.8526 14.0282 20.8172L11.7241 12.541Z" stroke="#2B281A" stroke-opacity="0.6" stroke-width="1.5" stroke-linecap="round" stroke-linejoin="round"/>
<path d="M14.5173 26.9993C15.2029 26.9993 15.7586 26.4709 15.7586 25.819C15.7586 25.1671 15.2029 24.6387 14.5173 24.6387C13.8317 24.6387 13.2759 25.1671 13.2759 25.819C13.2759 26.4709 13.8317 26.9993 14.5173 26.9993Z" fill="#2B281A" fill-opacity="0.6"/>
<path d="M23.2072 26.9993C23.8928 26.9993 24.4486 26.4709 24.4486 25.819C24.4486 25.1671 23.8928 24.6387 23.2072 24.6387C22.5216 24.6387 21.9658 25.1671 21.9658 25.819C21.9658 26.4709 22.5216 26.9993 23.2072 26.9993Z" fill="#2B281A" fill-opacity="0.6"/>
</svg>
