<svg width="230" height="28" viewBox="0 0 230 28" fill="none" xmlns="http://www.w3.org/2000/svg">
<path d="M133.125 4.17969C126.965 4.17969 123.008 7.84905 123.008 14.0001V26.9304H127.321V14.613C127.321 10.464 129.485 8.37813 133.125 8.37813C136.765 8.37813 138.93 10.464 138.93 14.613V26.9304H143.243V14.0001C143.243 7.84905 139.29 4.17969 133.125 4.17969Z" fill="#D4211C"/>
<path d="M47.6249 4.17969C42.0084 4.17969 37.5073 6.631 37.5073 12.7783V13.3645H41.8205V12.7783C41.8205 10.2547 43.4096 8.37432 47.6249 8.37432C51.8402 8.37432 53.4293 10.2585 53.4293 12.7783V18.9941C53.4293 21.5177 51.8402 23.3981 47.6249 23.3981C43.4096 23.3981 41.8205 21.5139 41.8205 18.9941V17.7989H37.5073V18.9941C37.5073 25.1452 42.0123 27.5965 47.6249 27.5965C53.2375 27.5965 57.7425 25.1452 57.7425 18.9941V12.7783C57.7425 6.631 53.2414 4.17969 47.6249 4.17969Z" fill="#D4211C"/>
<path d="M2.94722 0C1.31902 0 0 1.28275 0 2.8662C0 4.44965 1.31902 5.73239 2.94722 5.73239C4.57543 5.73239 5.89443 4.44965 5.89443 2.8662C5.89443 1.28275 4.57543 0 2.94722 0Z" fill="#D4211C"/>
<path d="M24.0864 12.8924C26.8066 12.0398 28.4074 10.0452 28.4074 6.56619V4.84951H24.0942V6.56619C24.0942 9.78257 22.6226 10.894 18.3094 10.894H17.5266V15.0887H18.3094C22.6226 15.0887 24.7244 16.2572 24.7244 19.2452C24.7244 22.2332 22.1529 23.6492 18.5677 23.6492C13.3347 23.6492 11.5617 19.8847 11.5617 14.8412C11.5617 11.6058 12.2467 8.25621 13.5148 4.8457H9.2016C8.23485 7.1143 7.24854 11.2709 7.24854 14.8412C7.24854 22.4083 10.6928 27.5964 18.5677 27.5964C24.6265 27.5964 29.0376 24.9015 29.0376 19.2452C29.0336 15.888 27.014 13.5889 24.0864 12.8924Z" fill="#D4211C"/>
<path d="M76.3339 4.17969C70.1694 4.17969 66.2163 7.84905 66.2163 14.0001V14.6929C66.2163 18.0882 67.5745 21.1637 70.3964 22.7319H66.8426V26.9266H85.8253V22.7319H79.285C73.3749 22.7319 70.5295 19.9914 70.5295 14.9403V14.6092C70.5295 10.4602 72.6939 8.37432 76.3339 8.37432C79.9739 8.37432 82.1383 10.4602 82.1383 14.6092V16.44H86.4515V14.0001C86.4515 7.84905 82.4984 4.17969 76.3339 4.17969Z" fill="#D4211C"/>
<path d="M110.605 11.2899L107.708 14.1066C109.458 15.3665 110.851 16.9614 110.851 19.0587C110.851 21.6128 108.691 23.398 105.047 23.398C101.407 23.398 99.2424 21.3121 99.2424 17.1631V4.8457H94.9292V17.776C94.9292 23.9271 98.8862 27.5964 105.047 27.5964C111.211 27.5964 115.164 24.4752 115.164 19.1805C115.164 15.5911 113.376 13.0789 110.605 11.2899Z" fill="#D4211C"/>
<path d="M219.883 4.17969C213.718 4.17969 209.765 7.84905 209.765 14.0001V26.9304H214.078V14.613C214.078 10.464 216.239 8.37813 219.883 8.37813C223.523 8.37813 225.687 10.464 225.687 14.613V26.9304H230V14.0001C230 7.84905 226.043 4.17969 219.883 4.17969Z" fill="#D4211C"/>
<path d="M196.732 11.2899L193.835 14.1066C195.585 15.3665 196.978 16.9614 196.978 19.0587C196.978 21.6128 194.814 23.398 191.174 23.398C187.53 23.398 185.369 21.3121 185.369 17.1631V4.8457H181.056V17.776C181.056 23.9271 185.013 27.5964 191.174 27.5964C197.334 27.5964 201.291 24.4752 201.291 19.1805C201.291 15.5911 199.503 13.0789 196.732 11.2899Z" fill="#D4211C"/>
<path d="M165.6 4.17969C162.59 4.17969 160.68 5.32922 159.521 7.65872C158.363 5.32541 156.453 4.17969 153.443 4.17969H151.169V8.37432H154.069C156.163 8.37432 157.365 9.3754 157.365 12.7098V14.4188H161.678V12.7098C161.678 9.3754 162.88 8.37432 164.973 8.37432C167.067 8.37432 168.269 9.3754 168.269 12.7098V18.9979C168.269 21.5215 166.68 23.4019 162.465 23.4019C158.249 23.4019 156.66 21.5177 156.66 18.9979V17.8027H152.347V18.9979C152.347 25.149 156.852 27.6003 162.465 27.6003C168.081 27.6003 172.582 25.149 172.582 18.9979V12.1007C172.582 6.76421 169.854 4.17969 165.6 4.17969Z" fill="#D4211C"/>
</svg>
